<svg id="图层_1" data-name="图层 1" xmlns="http://www.w3.org/2000/svg" viewBox="0 0 90.01 30"><defs><style>.cls-1{fill:#f25555;}.cls-2{fill:#222;}.cls-3,.cls-4,.cls-5{fill:none;stroke:#222;stroke-miterlimit:10;}.cls-3,.cls-5{stroke-linecap:round;}.cls-3{stroke-width:2.14px;}.cls-4,.cls-5{stroke-width:2.14px;}</style></defs><title>chuxinshuo-logo-b</title><path class="cls-1" d="M20.87,29.19s0,.06-.06.11a1.88,1.88,0,0,1-1.5.7,1.84,1.84,0,0,1-1.49-.68,2.67,2.67,0,0,1,0-3.18,1.82,1.82,0,0,1,1.49-.69,1.78,1.78,0,0,1,1.46.64.21.21,0,0,1,0,.11,1.24,1.24,0,0,1-.17.31c-.11.17-.17.26-.2.26s-.08-.05-.18-.15a1.58,1.58,0,0,0-.35-.28,1.21,1.21,0,0,0-.59-.16,1.12,1.12,0,0,0-1,.48,1.74,1.74,0,0,0-.3,1.05,1.82,1.82,0,0,0,.3,1.07,1.11,1.11,0,0,0,.95.48,1.23,1.23,0,0,0,.59-.15,1.85,1.85,0,0,0,.38-.28,1,1,0,0,1,.18-.16,1.31,1.31,0,0,1,.2.25A1.16,1.16,0,0,1,20.87,29.19Z"/><path class="cls-1" d="M25.82,29.84c0,.05,0,.07-.09.07H25c-.05,0-.07,0-.07-.07s0-.47,0-.84,0-.65,0-.84,0-.13-.07-.14a10.21,10.21,0,0,0-1.07,0,10.48,10.48,0,0,0-1.08,0s-.07.06-.07.14,0,.46,0,.82,0,.64,0,.83,0,.1-.08.1H22c-.05,0-.08,0-.08-.07,0-.23,0-.57,0-1s0-.8,0-1,0-.6,0-1.08,0-.84,0-1.08c0-.05,0-.07.08-.07h.69s.08,0,.08.05,0,.45,0,.81,0,.62,0,.8,0,.1.06.11a9,9,0,0,0,1.1,0,9.15,9.15,0,0,0,1.09,0s.07-.06.07-.14,0-.43,0-.78,0-.61,0-.79,0-.06.08-.06h.67c.06,0,.09,0,.09.07,0,.24,0,.6,0,1.08s0,.84,0,1.08,0,.57,0,1S25.82,29.61,25.82,29.84Z"/><path class="cls-1" d="M30.71,25.62q0,.36,0,1.08t0,1.08v.35c0,.16,0,.27,0,.35a2.34,2.34,0,0,1-.12.9,1,1,0,0,1-.73.52,3.72,3.72,0,0,1-.93.09,2,2,0,0,1-1.43-.36,1.74,1.74,0,0,1-.26-1.12c0-.07,0-.19,0-.35v-.38c0-.25,0-.7,0-1.36,0-.16,0-.42,0-.76v-.05s0-.06.08-.06h.69s.07,0,.07.06c0,.32,0,.79,0,1.42s0,1.11,0,1.42a.9.9,0,0,0,.24.73,1.22,1.22,0,0,0,.75.16,1.39,1.39,0,0,0,.71-.13.71.71,0,0,0,.27-.64c0-.33,0-.82,0-1.48s0-1.14,0-1.47c0,0,0-.06.09-.07h.19l.13,0h.34C30.68,25.55,30.71,25.57,30.71,25.62Z"/><path class="cls-1" d="M35.12,29.87s0,0-.07,0h-.54a6.54,6.54,0,0,1-.54-.77c-.32-.51-.49-.76-.5-.77a9.43,9.43,0,0,0-.55.8,4.79,4.79,0,0,1-.52.74h-.52c-.05,0-.07,0-.07-.05v-.45a5.41,5.41,0,0,1,.58-.83,6.48,6.48,0,0,0,.59-.84,5.83,5.83,0,0,0-.58-.85,6.89,6.89,0,0,1-.58-.83v-.48s0,0,.08,0h.52a.71.71,0,0,1,.12.14c.19.31.48.77.88,1.38l0,0a6.69,6.69,0,0,0,.54-.8,4.85,4.85,0,0,1,.53-.76H35c.06,0,.08,0,.08,0v.48a5,5,0,0,1-.58.85,8.84,8.84,0,0,0-.58.81,8.7,8.7,0,0,0,.59.84,8.72,8.72,0,0,1,.58.85Z"/><path class="cls-1" d="M37.12,29.84c0,.05,0,.07-.09.07h-.68c-.06,0-.08,0-.08-.07,0-.24,0-.59,0-1.07s0-.83,0-1.07,0-.58,0-1,0-.8,0-1c0-.06,0-.08.07-.08H37c.05,0,.08,0,.08.06q0,.34,0,1.05c0,.46,0,.81,0,1s0,.59,0,1.07S37.12,29.61,37.12,29.84Z"/><path class="cls-1" d="M42.39,25.62c0,.24,0,.59,0,1.08s0,.84,0,1.08,0,.56,0,1v1c0,.06,0,.1-.07.1h-.59s-.08,0-.13-.1q-.68-.91-2-2.7l-.24-.31s0,.05,0,.13c0,.32,0,.8,0,1.44s0,1.12,0,1.44c0,.06,0,.1-.06.1h-.66c-.05,0-.08,0-.08-.06,0-.23,0-.57,0-1s0-.81,0-1,0-.7,0-1.35c0-.17,0-.43,0-.77v0s0-.05.07-.05h.32l.16,0a.53.53,0,0,1,.16,0s0,0,.1.09c.48.65,1.2,1.63,2.19,2.92l.12.14c0-.09,0-.29,0-.6s0-.67,0-1.21,0-.94,0-1.21c0-.07,0-.1.06-.1h.7S42.39,25.57,42.39,25.62Z"/><path class="cls-1" d="M48.49,26.14c0,.05,0,.08-.06.08l-1.1,0c0,.63,0,1.14,0,1.52s0,.59,0,1.07,0,.84,0,1.07c0,.05,0,.07-.1.07h-.68a.07.07,0,0,1-.08-.08c0-.23,0-.59,0-1.06s0-.83,0-1.07,0-.88,0-1.52c-.54,0-.93.05-1.18.05,0,0,0,0,0,0a.61.61,0,0,1,0-.16c0-.09,0-.15,0-.17s0-.17,0-.3,0,0,0,0h0L47,25.6c.2,0,.54,0,1-.05l.4,0q.09,0,.09.06v.3a.72.72,0,0,0,0,.13S48.49,26.11,48.49,26.14Z"/><path class="cls-1" d="M53,29.87s0,0-.08,0h-.69c-.06,0-.14-.16-.23-.47s-.18-.48-.27-.48H50c-.07,0-.15.17-.23.48s-.15.47-.2.47h-.7s-.06,0-.06,0a.43.43,0,0,1,0-.14l.77-2.09c.06-.16.25-.65.58-1.45q.09-.2.24-.6c0-.08,0-.12.08-.12l.17,0,.17,0,.17,0,.17,0s0,0,.08.12.29.74.73,1.87C52.65,29.05,53,29.86,53,29.87Zm-1.45-1.71a4.86,4.86,0,0,0-.28-.81c-.18-.47-.31-.77-.38-.92-.43,1.1-.64,1.67-.64,1.72s.07.12.23.13h.63C51.36,28.28,51.51,28.24,51.51,28.16Z"/><path class="cls-1" d="M56.87,29.24a3,3,0,0,1,0,.61.11.11,0,0,1-.11.09l-.69,0-.69,0H54a.07.07,0,0,1-.08-.08c0-.22,0-.57,0-1s0-.8,0-1,0-.6,0-1.08,0-.84,0-1.08a.07.07,0,0,1,.08-.07h.69s.08,0,.08.06c0,.22,0,.55,0,1s0,.77,0,1v.49c0,.22,0,.38,0,.49q0,.69.06.69c.76,0,1.34,0,1.73-.05l.14,0h.15A.05.05,0,0,1,56.87,29.24Z"/><path class="cls-1" d="M61.3,29.76q0,.15-.09.15H60.5c-.06,0-.22-.22-.47-.66a7.89,7.89,0,0,1-.43-.81l-.12-.27a.27.27,0,0,0-.22-.16h-.2c-.27,0-.4,0-.4.1s0,.48,0,.86,0,.66,0,.85,0,.1-.07.1h-.69s-.08,0-.08-.07c0-.23,0-.57,0-1s0-.8,0-1,0-.6,0-1.08,0-.84,0-1.08c0-.05,0-.07.08-.07h.68c.05,0,.07,0,.07.05s0,.45,0,.8,0,.62,0,.8a.5.5,0,0,0,0,.15s.06.06.13.06a1.38,1.38,0,0,0,.88-.23,1.87,1.87,0,0,0,.46-.73l.31-.83a.13.13,0,0,1,.09-.07h.33c.23,0,.35,0,.35.09a3.54,3.54,0,0,1-.15.51,3.71,3.71,0,0,1-.43.92,3.24,3.24,0,0,1-.47.54.17.17,0,0,0-.08.12,3.45,3.45,0,0,0,.26.55,5.88,5.88,0,0,0,.39.7c.13.16.31.4.55.73A.13.13,0,0,1,61.3,29.76Z"/><path class="cls-1" d="M44.32,29.22h0a.23.23,0,0,1-.31,0h0a.22.22,0,0,0-.32,0h0a.21.21,0,0,0,0,.31l.16.16.16.16a.21.21,0,0,0,.31,0l.16-.16.16-.16a.21.21,0,0,0,0-.31h0A.22.22,0,0,0,44.32,29.22Z"/><path class="cls-2" d="M0,5.35H0A1.07,1.07,0,0,0,1.07,6.42h0A1.07,1.07,0,0,1,2.14,7.49v15a1.07,1.07,0,0,0,1.07,1.07h0a1.07,1.07,0,0,0,1.07-1.07v-15A1.07,1.07,0,0,1,5.35,6.42h0A1.07,1.07,0,0,1,6.42,7.49v21.4A1.07,1.07,0,0,0,7.49,30h0a1.07,1.07,0,0,0,1.07-1.07V7.49A1.07,1.07,0,0,1,9.63,6.42h0A1.07,1.07,0,0,1,10.7,7.49v8.56a1.07,1.07,0,0,0,1.07,1.07h0a1.07,1.07,0,0,0,1.07-1.07V7.49a1.07,1.07,0,0,1,1.07-1.07h0A1.07,1.07,0,0,0,15,5.35h0a1.07,1.07,0,0,0-1.07-1.07H1.07A1.07,1.07,0,0,0,0,5.35Z"/><path class="cls-2" d="M68.61,5.35h0a1.07,1.07,0,0,0,1.07,1.07h0a1.07,1.07,0,0,1,1.07,1.07v15a1.07,1.07,0,0,0,1.07,1.07h0a1.07,1.07,0,0,0,1.07-1.07V5.35a1.07,1.07,0,0,0-1.07-1.07H69.68A1.07,1.07,0,0,0,68.61,5.35Z"/><path class="cls-2" d="M87.87,4.28H76.1A1.07,1.07,0,0,0,75,5.35V9.63A1.07,1.07,0,0,0,76.1,10.7h2.14a1.07,1.07,0,0,1,1.07,1.07v8.56a1.07,1.07,0,0,0,1.07,1.07h0a1.07,1.07,0,0,0,1.07-1.07V11.77a1.07,1.07,0,0,1,1.07-1.07h0a1.07,1.07,0,0,1,1.07,1.07v6.42a1.07,1.07,0,0,0,1.07,1.07h0a1.07,1.07,0,0,0,1.07-1.07V11.77A1.06,1.06,0,0,1,86.8,10.7h2.14A1.07,1.07,0,0,0,90,9.63V5.35a1.07,1.07,0,0,0-1.07-1.07ZM86.8,8.56H78.24a1.07,1.07,0,0,1-1.07-1.07h0a1.07,1.07,0,0,1,1.07-1.07H86.8a1.07,1.07,0,0,1,1.07,1.07h0A1.07,1.07,0,0,1,86.8,8.56Z"/><path class="cls-3" d="M84.66,18.42s0,4.28,4.28,4.28"/><rect class="cls-2" x="4.28" width="6.42" height="2.14" rx="1.07"/><rect class="cls-2" x="17.12" y="4.28" width="8.56" height="2.14" rx="1.07"/><rect class="cls-2" x="27.82" y="8.56" width="2.14" height="8.56" rx="1.07"/><path class="cls-4" d="M24.61,5.35s4.28,0,4.28,4.28"/><path class="cls-5" d="M25.68,20.33s3.21,0,3.21-4.28"/><path class="cls-5" d="M22.51,10.26A7.11,7.11,0,0,1,18.2,16"/><rect class="cls-2" x="38.64" y="4.28" width="2.14" height="8.56" rx="1.07"/><rect class="cls-2" x="45.06" y="4.28" width="2.14" height="10.7" rx="1.07"/><rect class="cls-2" x="51.37" y="19.26" width="4.28" height="2.14" rx="1.07"/><path class="cls-4" d="M46.13,13.91s0,6.42,6.42,6.42"/><rect class="cls-2" x="51.48" y="4.28" width="2.14" height="8.56" rx="1.07"/><rect class="cls-2" x="57.9" y="4.28" width="2.14" height="10.7" rx="1.07"/><rect class="cls-2" x="68.61" width="4.28" height="2.14" rx="1.07"/><rect class="cls-2" x="77.17" width="4.28" height="2.14" rx="1.07"/><rect class="cls-2" x="83.59" width="4.28" height="2.14" rx="1.07"/></svg>